<svg width="828" height="965" viewBox="0 0 828 965" fill="none" xmlns="http://www.w3.org/2000/svg">
<path d="M269.135 176.655C287.708 50.3327 680.911 51.4967 567.354 176.655C546.129 197.03 567.354 305.888 606.621 305.888C645.889 305.888 648.011 245.346 650.664 64.8858C653.318 -115.575 776.426 130.667 813.04 197.03C849.654 263.392 815.693 323.352 747.771 368.758C679.849 414.164 718.586 558.533 747.771 635.956C776.956 713.38 695.238 796.624 606.621 828.059C518.005 859.494 512.168 716.29 410.285 756.457C308.403 796.624 373.671 917.125 363.058 936.918C352.446 956.71 269.135 988.727 156.64 936.918C44.1447 885.108 54.7574 899.661 10.1838 796.624C-34.3898 693.587 70.146 676.123 269.135 635.956C468.125 595.789 250.563 302.977 269.135 176.655Z" fill="#9A52A3"/>
</svg>
