<svg width="935" height="648" viewBox="0 0 935 648" fill="none" xmlns="http://www.w3.org/2000/svg">
<path d="M750.113 69.4332C786.458 53.1093 829.27 66.4037 849.975 100.443L922.705 220.011C935.496 241.04 937.756 266.828 928.816 289.76L888.165 394.037C875.015 427.769 835.469 442.588 803.389 425.806C752.405 399.134 696.353 451.683 719.683 504.28L736.218 541.556C765.778 608.197 692.48 673.559 629.647 636.59L506.49 564.127C490.304 554.603 469.532 558.926 458.489 574.116C436.271 604.677 387.954 585.447 392.811 547.978L399.354 497.503C402.387 474.108 388.476 451.827 366.125 444.279L54.3756 339.008C-6.10368 318.585 -18.643 238.581 32.688 200.634L36.3057 197.96C80.3254 165.418 143.296 187.207 157.79 239.996L160.001 248.049C167.063 273.769 189.008 292.643 215.495 295.776C267.213 301.895 305.059 248.154 281.872 201.522L244.478 126.315C220.511 78.1131 250.717 20.5821 304.003 12.9419L388.856 0.775476C434.583 -5.781 474.623 31.6899 471.108 77.7508C466.941 132.372 522.727 171.562 572.698 149.118L750.113 69.4332Z" fill="#27214F"/>
</svg>
