<svg width="40" height="30" viewBox="0 0 40 30" fill="none" xmlns="http://www.w3.org/2000/svg">
<path d="M34.4565 3.32685C30.9952 0.500648 25.5197 0.0215727 25.2853 0.00433909C24.9219 -0.02668 24.5754 0.180116 24.426 0.521328C24.4124 0.542007 24.2935 0.821181 24.161 1.25545C26.4504 1.64836 29.2629 2.43763 31.8071 4.04029C32.2147 4.29534 32.3404 4.8399 32.089 5.25349C31.9226 5.52577 31.6406 5.67398 31.3485 5.67398C31.1923 5.67398 31.0326 5.62917 30.8899 5.53956C26.5149 2.78574 21.053 2.64787 20 2.64787C18.947 2.64787 13.4817 2.78574 9.11005 5.53956C8.70245 5.79806 8.16576 5.67053 7.9144 5.25694C7.65965 4.8399 7.78533 4.29879 8.19293 4.04029C10.7371 2.44108 13.5496 1.64836 15.839 1.2589C15.7065 0.821182 15.5876 0.545455 15.5774 0.521328C15.4246 0.180116 15.0815 -0.0335727 14.7147 0.00433909C14.4803 0.0215727 9.00476 0.500648 5.49592 3.36476C3.66508 5.08461 0 15.1349 0 23.8237C0 23.9788 0.0407608 24.127 0.11549 24.2614C2.64266 28.7696 9.54144 29.9483 11.1141 30C11.1209 30 11.1311 30 11.1413 30C11.4198 30 11.6814 29.8656 11.8444 29.6381L13.4341 27.4185C9.14402 26.2949 6.95313 24.3855 6.82745 24.2718C6.46739 23.9512 6.43342 23.3929 6.75272 23.0276C7.06861 22.6622 7.61889 22.6277 7.97894 22.9483C8.02989 22.9965 12.0652 26.4707 20 26.4707C27.9484 26.4707 31.9837 22.9827 32.0245 22.9483C32.3845 22.6312 32.9314 22.6622 33.2507 23.031C33.5666 23.3963 33.5326 23.9512 33.1726 24.2718C33.0469 24.3855 30.856 26.2949 26.5659 27.4185L28.1556 29.6381C28.3186 29.8656 28.5802 30 28.8587 30C28.8689 30 28.8791 30 28.8859 30C30.4586 29.9483 37.3573 28.7696 39.8845 24.2614C39.9592 24.127 40 23.9788 40 23.8237C40 15.1349 36.3349 5.08461 34.4565 3.32685ZM14.3478 20.2944C12.6664 20.2944 11.3043 18.7159 11.3043 16.7651C11.3043 14.8143 12.6664 13.2358 14.3478 13.2358C16.0292 13.2358 17.3913 14.8143 17.3913 16.7651C17.3913 18.7159 16.0292 20.2944 14.3478 20.2944ZM25.6522 20.2944C23.9708 20.2944 22.6087 18.7159 22.6087 16.7651C22.6087 14.8143 23.9708 13.2358 25.6522 13.2358C27.3336 13.2358 28.6957 14.8143 28.6957 16.7651C28.6957 18.7159 27.3336 20.2944 25.6522 20.2944Z" fill="#ECF2F4"/>
</svg>
