<svg width="40" height="40" viewBox="0 0 40 40" fill="none" xmlns="http://www.w3.org/2000/svg">
<path d="M13.7313 40C14.3496 39.727 14.7826 39.0963 14.7826 38.362V33.5445C14.7826 33.3687 14.7965 33.1858 14.8183 33.0003C14.8061 33.0038 14.7948 33.0065 14.7826 33.0092C14.7826 33.0092 12.1739 33.0092 11.6522 33.0092C10.3478 33.0092 9.21739 32.4739 8.69565 31.4033C8.08696 30.2436 7.82609 28.2808 6.26087 27.2103C6 27.0319 6.17391 26.7642 6.69565 26.7642C7.21739 26.8534 8.34783 27.5671 9.04348 28.5485C9.82609 29.5298 10.6087 30.3328 12 30.3328C14.1626 30.3328 15.3217 30.2213 16.0191 29.8376C16.8313 28.5984 17.9557 27.6563 19.1304 27.6563V27.634C14.2017 27.4717 11.053 25.7909 9.58696 23.1956C6.4 23.2331 3.62522 23.557 2.04174 23.8264C1.9913 23.5347 1.94783 23.2411 1.91043 22.9458C3.47304 22.6818 6.12174 22.3686 9.16696 22.3089C9.06956 22.0626 8.98522 21.8102 8.91391 21.5514C5.86087 21.3926 3.22609 21.5166 1.79478 21.638C1.77739 21.3418 1.75391 21.0465 1.75043 20.7467C3.18435 20.6263 5.74783 20.5058 8.72261 20.6477C8.65391 20.2016 8.60956 19.7457 8.60956 19.2711C8.60956 17.7545 9.1313 16.1486 10.0878 14.8104C9.65304 13.2938 9.04435 10.0821 10.2617 8.9223C12.6096 8.9223 14.2617 10.0821 15.0443 10.7958C16.5217 10.1704 18.1739 9.81354 20 9.81354C21.8261 9.81354 23.4783 10.1704 24.8696 10.7949C25.6522 10.0812 27.3043 8.9214 29.6522 8.9214C30.9565 10.1704 30.2609 13.3821 29.8261 14.8095C30.7826 16.1477 31.3043 17.6644 31.2174 19.2702C31.2174 19.702 31.1783 20.1187 31.1217 20.5273C34.1643 20.3738 36.7974 20.4969 38.2556 20.6183C38.2539 20.9189 38.227 21.2124 38.2113 21.5095C36.7583 21.3864 34.0591 21.2597 30.9426 21.4301C30.8652 21.7299 30.7713 22.0216 30.66 22.3044C33.7435 22.3454 36.4557 22.6514 38.093 22.9191C38.0556 23.2153 38.0122 23.5088 37.9617 23.7996C36.2991 23.5266 33.4652 23.2072 30.2409 23.1912C28.793 25.7588 25.7017 27.4333 20.8696 27.6287V27.6563C23.1304 27.6563 25.2174 31.1357 25.2174 33.5445V38.362C25.2174 39.0963 25.6504 39.727 26.2687 40C34.2348 37.295 40 29.5869 40 20.5192C40 9.2051 31.0287 0 20 0C8.9713 0 0 9.2051 0 20.5192C0 29.5869 5.76522 37.295 13.7313 40Z" fill="#ECF2F4"/>
</svg>
