<svg width="40" height="40" viewBox="0 0 40 40" fill="none" xmlns="http://www.w3.org/2000/svg">
<path d="M9.52381 0C4.27492 0 0 4.27492 0 9.52381V30.4762C0 35.7251 4.27492 40 9.52381 40H30.4762C35.7251 40 40 35.7251 40 30.4762V9.52381C40 4.27492 35.7251 0 30.4762 0H9.52381ZM8.57143 11.4286H31.4286C31.6 11.4286 31.7617 11.4479 31.9141 11.4955L22.5521 20.8482C21.1426 22.2577 18.8481 22.2577 17.4386 20.8482L8.08594 11.4955C8.23832 11.4479 8.4 11.4286 8.57143 11.4286ZM6.73363 12.8478L13.8951 20L6.73363 27.1522C6.68601 26.9998 6.66667 26.8381 6.66667 26.6667V13.3333C6.66667 13.1619 6.68601 13.0002 6.73363 12.8478ZM33.2664 12.8478C33.314 13.0002 33.3333 13.1619 33.3333 13.3333V26.6667C33.3333 26.8381 33.314 26.9998 33.2664 27.1522L26.0956 20L33.2664 12.8478ZM15.2381 21.343L16.0863 22.2005C17.1625 23.2767 18.5812 23.8095 19.9907 23.8095C21.4097 23.8095 22.8189 23.2767 23.8951 22.2005L24.7526 21.343L31.9141 28.5045C31.7617 28.5521 31.6 28.5714 31.4286 28.5714H8.57143C8.4 28.5714 8.23832 28.5521 8.08594 28.5045L15.2381 21.343Z" fill="#ECF2F4"/>
</svg>
