<svg width="40" height="40" viewBox="0 0 40 40" fill="none" xmlns="http://www.w3.org/2000/svg">
<path d="M6.66667 0C2.98476 0 0 2.98476 0 6.66667V33.3333C0 37.0152 2.98476 40 6.66667 40H33.3333C37.0152 40 40 37.0152 40 33.3333V6.66667C40 2.98476 37.0152 0 33.3333 0H6.66667ZM8.65327 8.57143H16.2128L21.5811 16.1998L28.0952 8.57143H30.4762L22.6562 17.7269L32.2991 31.4286H24.7414L18.5119 22.5781L10.9524 31.4286H8.57143L17.4368 21.051L8.65327 8.57143ZM12.2991 10.4762L25.7347 29.5238H28.6533L15.2176 10.4762H12.2991Z" fill="#ECF2F4"/>
</svg>
